<svg width="20" height="20" viewBox="0 0 20 20" fill="none" xmlns="http://www.w3.org/2000/svg">
<g id="instagram">
<path id="Icon" d="M14.5834 5.41663H14.5917M5.83335 1.66663H14.1667C16.4679 1.66663 18.3334 3.53211 18.3334 5.83329V14.1666C18.3334 16.4678 16.4679 18.3333 14.1667 18.3333H5.83335C3.53217 18.3333 1.66669 16.4678 1.66669 14.1666V5.83329C1.66669 3.53211 3.53217 1.66663 5.83335 1.66663ZM13.3334 9.47496C13.4362 10.1685 13.3177 10.8768 12.9948 11.4991C12.6719 12.1215 12.161 12.6261 11.5347 12.9414C10.9084 13.2566 10.1987 13.3663 9.50651 13.2549C8.81429 13.1435 8.17482 12.8167 7.67905 12.3209C7.18328 11.8252 6.85646 11.1857 6.74508 10.4935C6.63369 9.80125 6.74341 9.09154 7.05863 8.46527C7.37384 7.839 7.87851 7.32808 8.50084 7.00516C9.12317 6.68224 9.83148 6.56378 10.525 6.66663C11.2325 6.77153 11.8874 7.10118 12.3931 7.60688C12.8988 8.11258 13.2285 8.76752 13.3334 9.47496Z" stroke="#9FA1A3" stroke-linecap="round" stroke-linejoin="round"/>
</g>
</svg>
