<svg width="16" height="16" viewBox="0 0 16 16" fill="none" xmlns="http://www.w3.org/2000/svg">
<path id="&#226;&#128;&#156;" d="M9.37544 15.5V10.3795C9.37544 7.72891 9.93684 5.56024 11.0597 3.87349C12.1825 2.14659 13.8292 1.02209 16 0.5V3.21084C14.8023 3.53213 13.9228 4.13454 13.3614 5.01807C12.8 5.86145 12.4444 6.94578 12.2947 8.27108H14.8772V15.5H9.37544ZM0 15.5V10.3795C0 7.72891 0.54269 5.56024 1.62807 3.87349C2.75088 2.14659 4.39766 1.02209 6.56842 0.5V3.21084C5.40819 3.53213 4.52866 4.13454 3.92982 5.01807C3.36842 5.86145 3.03158 6.94578 2.9193 8.27108H5.44561V15.5H0Z" fill="white"/>
</svg>
